<svg xmlns="http://www.w3.org/2000/svg" width="26" height="26" viewBox="0 0 26 26">
    <defs>
        <!-- Máscara que recorta el círculo -->
        <mask id="circleMask">
            <!-- Fondo blanco = visible -->
            <rect width="26" height="26" fill="white"/>
            <!-- Candado negro = recorte (oculta esta zona) -->
            <g transform="translate(13,13) scale(0.5)" fill="black">
                <path d="M6.6 10h10.8c.88 0 1.6.72 1.6 1.6v7c0 1.32-1.08 2.4-2.4 2.4H7.4C6.08 21 5 19.92 5 18.6v-7c0-.88.72-1.6 1.6-1.6"/>
                <path d="M8 10V7c0-2.21 1.79-4 4-4s4 1.79 4 4v3m-4 5a1 1 0 1 0 0-2a1 1 0 0 0 0 2m0 0v3m-5.4-8h10.8c.88 0 1.6.72 1.6 1.6v7c0 1.32-1.08 2.4-2.4 2.4H7.4C6.08 21 5 19.92 5 18.6v-7c0-.88.72-1.6 1.6-1.6"/>
            </g>
        </mask>
    </defs>

    <g fill="#969696">
        <path d="M26 14c0 6.627-5.373 12-12 12S2 20.627 2 14S7.373 2 14 2s12 5.373 12 12" opacity="0.2"/>
        <g fill-rule="evenodd" clip-rule="evenodd">
            <path d="M10.097 8.3c-.646.484-1 1.115-1 1.77c0 .656.354 1.287 1 1.772s1.562.8 2.595.8a.5.5 0 0 1 0 1c-1.228 0-2.36-.373-3.195-1c-.836-.627-1.4-1.53-1.4-2.571c0-1.04.564-1.945 1.4-2.572c.836-.626 1.967-.999 3.195-.999c1.918 0 3.647.919 4.314 2.334a.5.5 0 0 1-.905.426c-.457-.97-1.761-1.76-3.409-1.76c-1.033 0-1.949.315-2.595.8"/>
            <path d="M14.957 17.983c.646-.484.999-1.116.999-1.77c0-.656-.353-1.288-1-1.772c-.646-.485-1.562-.8-2.594-.8a.5.5 0 1 1 0-1c1.228 0 2.36.373 3.195 1s1.399 1.53 1.399 2.571c0 1.04-.564 1.945-1.4 2.571c-.835.627-1.966 1-3.194 1c-1.918 0-3.647-.919-4.314-2.334a.5.5 0 0 1 .905-.426c.457.97 1.76 1.76 3.409 1.76c1.032 0 1.948-.315 2.595-.8M12 4a.5.5 0 0 1 .5.5v2a.5.5 0 0 1-1 0v-2A.5.5 0 0 1 12 4"/>
            <path d="M12 19a.5.5 0 0 1 .5.5v2a.5.5 0 0 1-1 0v-2a.5.5 0 0 1 .5-.5"/>
        </g>
        <!-- Círculo recortado por la máscara -->
        <path fill-rule="evenodd" d="M13 24.5c6.351 0 11.5-5.149 11.5-11.5S19.351 1.5 13 1.5S1.5 6.649 1.5 13S6.649 24.5 13 24.5m0 1c6.904 0 12.5-5.596 12.5-12.5S19.904.5 13 .5S.5 6.096.5 13S6.096 25.5 13 25.5" clip-rule="evenodd" mask="url(#circleMask)"/>
    </g>

    <!-- Candado por encima -->
    <g transform="translate(13,13) scale(0.5)" fill="none">
        <path fill="currentColor" fill-opacity="0.16" d="M6.6 10h10.8c.88 0 1.6.72 1.6 1.6v7c0 1.32-1.08 2.4-2.4 2.4H7.4C6.08 21 5 19.92 5 18.6v-7c0-.88.72-1.6 1.6-1.6"/>
        <path stroke="currentColor" stroke-linecap="round" stroke-linejoin="round" stroke-miterlimit="10" stroke-width="1.5" d="M8 10V7c0-2.21 1.79-4 4-4s4 1.79 4 4v3m-4 5a1 1 0 1 0 0-2a1 1 0 0 0 0 2m0 0v3m-5.4-8h10.8c.88 0 1.6.72 1.6 1.6v7c0 1.32-1.08 2.4-2.4 2.4H7.4C6.08 21 5 19.92 5 18.6v-7c0-.88.72-1.6 1.6-1.6"/>
    </g>
</svg>
