<svg xmlns="http://www.w3.org/2000/svg" width="26" height="26" viewBox="0 0 26 26">

    <!-- Ãcono principal -->
    <g fill="black">
        <!-- Sombra proyectada -->
        <g opacity="0.2" transform="translate(1.5,1.5)">
            <path fill-rule="evenodd"
                  d="M19.5 7.5h-13A.5.5 0 0 0 6 8v11a.5.5 0 0 0 .5.5h13a.5.5 0 0 0 .5-.5V8a.5.5 0 0 0-.5-.5M7 18.5v-10h12v10z"
                  clip-rule="evenodd"/>
            <path fill-rule="evenodd"
                  d="M19.5 7.5h-13A.5.5 0 0 0 6 8v3a.5.5 0 0 0 .5.5h13a.5.5 0 0 0 .5-.5V8a.5.5 0 0 0-.5-.5M7 10.5v-2h12v2z"
                  clip-rule="evenodd"/>
            <path d="M8.5 8.5h1A.5.5 0 0 0 10 8V7a.5.5 0 0 0-.5-.5h-1A.5.5 0 0 0 8 7v1a.5.5 0 0 0 .5.5m8 0h1A.5.5 0 0 0 18 8V7a.5.5 0 0 0-.5-.5h-1a.5.5 0 0 0-.5.5v1a.5.5 0 0 0 .5.5m-7.5 6a1 1 0 1 1 0-2a1 1 0 0 1 0 2"/>
        </g>

        <path fill-rule="evenodd"
              d="M19.5 7.5h-13A.5.5 0 0 0 6 8v11a.5.5 0 0 0 .5.5h13a.5.5 0 0 0 .5-.5V8a.5.5 0 0 0-.5-.5M7 18.5v-10h12v10z"
              clip-rule="evenodd"/>
        <path fill-rule="evenodd"
              d="M19.5 7.5h-13A.5.5 0 0 0 6 8v3a.5.5 0 0 0 .5.5h13a.5.5 0 0 0 .5-.5V8a.5.5 0 0 0-.5-.5M7 10.5v-2h12v2z"
              clip-rule="evenodd"/>
        <path d="M8.5 8.5h1A.5.5 0 0 0 10 8V7a.5.5 0 0 0-.5-.5h-1A.5.5 0 0 0 8 7v1a.5.5 0 0 0 .5.5m8 0h1A.5.5 0 0 0 18 8V7a.5.5 0 0 0-.5-.5h-1a.5.5 0 0 0-.5.5v1a.5.5 0 0 0 .5.5m-7.5 6a1 1 0 1 1 0-2a1 1 0 0 1 0 2"/>
    </g>
</svg>
