<svg xmlns="http://www.w3.org/2000/svg" width="26" height="26" viewBox="0 0 26 26">
    <g fill="black">
        <path d="M9.5 5h6.685a1.5 1.5 0 0 1 1.106.486l4.314 4.702A1.5 1.5 0 0 1 22 11.202V21.5a1.5 1.5 0 0 1-1.5 1.5h-11A1.5 1.5 0 0 1 8 21.5v-15A1.5 1.5 0 0 1 9.5 5"
              opacity="0.2"/>
        <path d="M9.5 15a.5.5 0 0 1 0-1h7a.5.5 0 0 1 0 1zm0 3a.5.5 0 0 1 0-1h7a.5.5 0 0 1 0 1z"/>
        <path fill-rule="evenodd"
              d="M14.185 4H7.5A1.5 1.5 0 0 0 6 5.5v15A1.5 1.5 0 0 0 7.5 22h11a1.5 1.5 0 0 0 1.5-1.5V10.202a1.5 1.5 0 0 0-.395-1.014l-4.314-4.702A1.5 1.5 0 0 0 14.185 4M7 5.5a.5.5 0 0 1 .5-.5h6.685a.5.5 0 0 1 .369.162l4.314 4.702a.5.5 0 0 1 .132.338V20.5a.5.5 0 0 1-.5.5h-11a.5.5 0 0 1-.5-.5z"
              clip-rule="evenodd"/>
        <path d="M14 10h5.5a.5.5 0 0 1 0 1h-6a.5.5 0 0 1-.5-.5v-6a.5.5 0 0 1 1 0z"/>
        </g>
</svg>