<svg xmlns="http://www.w3.org/2000/svg" width="26" height="26" viewBox="0 0 26 26">
    <g fill="black">
        <!-- Sombra proyectada (ligero desplazamiento y opacidad) -->
        <g opacity="0.2" transform="translate(1.5, 1.5)">
            <path d="M8 9.5H7V5.1c0-.866.612-1.6 1.417-1.6h9.166c.805 0 1.417.734 1.417 1.6v4.4h-1V5.1c0-.35-.209-.6-.417-.6H8.417c-.208 0-.417.25-.417.6z"/>
            <path fill-rule="evenodd"
                  d="M19 9H7a3 3 0 0 0-3 3v5a3 3 0 0 0 3 3h12a3 3 0 0 0 3-3v-5a3 3 0 0 0-3-3M5 12a2 2 0 0 1 2-2h12a2 2 0 0 1 2 2v5a2 2 0 0 1-2 2H7a2 2 0 0 1-2-2z"
                  clip-rule="evenodd"/>
            <path d="M18 14.969h1v5.25c0 .97-.588 1.812-1.417 1.812H8.417C7.588 22.031 7 21.19 7 20.22v-5.25h1v5.25c0 .479.233.812.417.812h9.166c.184 0 .417-.333.417-.812z"/>
            <path d="M16.5 18.5a.5.5 0 0 1 0 1h-7a.5.5 0 0 1 0-1zm0-2a.5.5 0 0 1 0 1h-7a.5.5 0 0 1 0-1z"/>
        </g>

        <!-- Ãcono principal (encima de la sombra) -->
        <path d="M8 9.5H7V5.1c0-.866.612-1.6 1.417-1.6h9.166c.805 0 1.417.734 1.417 1.6v4.4h-1V5.1c0-.35-.209-.6-.417-.6H8.417c-.208 0-.417.25-.417.6z"/>
        <path fill-rule="evenodd"
              d="M19 9H7a3 3 0 0 0-3 3v5a3 3 0 0 0 3 3h12a3 3 0 0 0 3-3v-5a3 3 0 0 0-3-3M5 12a2 2 0 0 1 2-2h12a2 2 0 0 1 2 2v5a2 2 0 0 1-2 2H7a2 2 0 0 1-2-2z"
              clip-rule="evenodd"/>
        <path d="M18 14.969h1v5.25c0 .97-.588 1.812-1.417 1.812H8.417C7.588 22.031 7 21.19 7 20.22v-5.25h1v5.25c0 .479.233.812.417.812h9.166c.184 0 .417-.333.417-.812z"/>
        <path d="M16.5 18.5a.5.5 0 0 1 0 1h-7a.5.5 0 0 1 0-1zm0-2a.5.5 0 0 1 0 1h-7a.5.5 0 0 1 0-1z"/>
    </g>
</svg>
